<?xml version="1.0" encoding="utf-8"?>
<!-- Generator: Adobe Illustrator 25.2.1, SVG Export Plug-In . SVG Version: 6.00 Build 0)  -->
<svg version="1.1" id="Layer_1" xmlns="http://www.w3.org/2000/svg" xmlns:xlink="http://www.w3.org/1999/xlink" x="0px" y="0px"
	 viewBox="0 0 1366 768" style="enable-background:new 0 0 1366 768;" xml:space="preserve">
<style type="text/css">
	.st0{fill:#E7E9EB;}
	.st1{fill:#F4F7F6;}
</style>
<g>
	<g id="a">
		<rect class="st0" width="1366" height="768"/>
		<g transform="translate(592.448 293.459)">
			<path class="st1" d="M181.1,120.7c0,33.3-26.9,60.3-60.2,60.4c0,0,0,0,0,0H0v-60.4h120.8V60.4h2.4
				C155.6,61.7,181.1,88.3,181.1,120.7z"/>
			<path class="st1" d="M181.1,0.1v60.4h-57.9c-0.8,0-1.6-0.1-2.4-0.1v0.1h0v-0.1H60.4v60.3C27,121-0.2,94.2-0.5,60.8
				C-0.8,27.5,26,0.3,59.4,0c0.3,0,0.7,0,1,0l60.4,0.1L181.1,0.1z"/>
			<path class="st1" d="M123.2,60.4h-2.4v-0.1C121.6,60.4,122.4,60.4,123.2,60.4z"/>
			<path class="st1" d="M123.2,60.4h-2.4v-0.1C121.6,60.4,122.4,60.4,123.2,60.4z"/>
		</g>
	</g>
</g>
</svg>
