<?xml version="1.0" encoding="utf-8"?>
<!-- Generator: Adobe Illustrator 25.2.1, SVG Export Plug-In . SVG Version: 6.00 Build 0)  -->
<svg version="1.1" id="Layer_1" xmlns="http://www.w3.org/2000/svg" xmlns:xlink="http://www.w3.org/1999/xlink" x="0px" y="0px"
	 viewBox="0 0 6.4 6.4" style="enable-background:new 0 0 6.4 6.4;" xml:space="preserve">
<style type="text/css">
	.st0{fill:#F4F7F6;}
</style>
<path class="st0" d="M6,0.4L6,0.4c0.2,0.2,0.2,0.5,0,0.7l-4.9,5c-0.2,0.2-0.5,0.2-0.7,0l0,0c-0.2-0.2-0.2-0.5,0-0.7l4.9-5
	C5.5,0.2,5.8,0.2,6,0.4z M6.1,6L6.1,6C5.9,6.2,5.6,6.2,5.4,6l-5-4.9C0.1,1,0.1,0.7,0.4,0.5l0,0c0.2-0.2,0.5-0.2,0.7,0l5,4.9
	C6.3,5.5,6.3,5.8,6.1,6z"/>
</svg>
