<svg xmlns="http://www.w3.org/2000/svg" width="49.526" height="49.525" viewBox="0 0 49.526 49.525"><defs><style>.a{fill:#b9c3bf;}</style></defs><g transform="translate(0.001)"><path class="a" d="M28.843,8.505c6.612,0,7.395.026,10.007.144a13.708,13.708,0,0,1,4.6.852,8.192,8.192,0,0,1,4.7,4.7A13.7,13.7,0,0,1,49,18.8c.119,2.612.144,3.394.144,10.006S49.122,36.2,49,38.814a13.7,13.7,0,0,1-.852,4.6,8.208,8.208,0,0,1-4.7,4.7,13.708,13.708,0,0,1-4.6.852c-2.611.119-3.394.144-10.007.144s-7.4-.026-10.007-.144a13.708,13.708,0,0,1-4.6-.852,8.192,8.192,0,0,1-4.7-4.7,13.7,13.7,0,0,1-.852-4.6C8.567,36.2,8.542,35.417,8.542,28.8s.026-7.394.144-10.006a13.7,13.7,0,0,1,.852-4.6,8.192,8.192,0,0,1,4.7-4.7,13.708,13.708,0,0,1,4.6-.852c2.612-.119,3.394-.144,10.007-.144m0-4.461c-6.725,0-7.569.029-10.21.149a18.173,18.173,0,0,0-6.013,1.154,12.657,12.657,0,0,0-7.244,7.244,18.174,18.174,0,0,0-1.15,6.01C4.109,21.233,4.08,22.08,4.08,28.8s.029,7.568.149,10.209a18.155,18.155,0,0,0,1.15,6.008,12.666,12.666,0,0,0,7.244,7.243,18.15,18.15,0,0,0,6.011,1.151c2.635.12,3.485.149,10.21.149s7.569-.028,10.21-.149a18.117,18.117,0,0,0,6.007-1.151,12.654,12.654,0,0,0,7.243-7.243,18.146,18.146,0,0,0,1.151-6.01c.12-2.635.149-3.484.149-10.209s-.029-7.568-.149-10.209a18.113,18.113,0,0,0-1.151-6.006,12.666,12.666,0,0,0-7.243-7.244,18.178,18.178,0,0,0-6.011-1.15c-2.635-.12-3.483-.149-10.208-.149Z" transform="translate(-4.081 -4.04)"/><path class="a" d="M139.115,126.64a12.473,12.473,0,1,0,12.475,12.473,12.474,12.474,0,0,0-12.475-12.473Zm0,20.572a8.1,8.1,0,1,1,8.1-8.1A8.1,8.1,0,0,1,139.115,147.212Z" transform="translate(-114.352 -114.348)"/><ellipse class="a" cx="3.031" cy="3.031" rx="3.031" ry="3.031" transform="translate(34.914 8.552)"/></g></svg>