<svg xmlns="http://www.w3.org/2000/svg" width="49.526" height="49.525" viewBox="0 0 49.526 49.525"><defs><style>.a{fill:#b9c3bf;}</style></defs><path class="a" d="M-1527.287,1125.284V1104.2a3.5,3.5,0,0,1,1.113-2.677,3.506,3.506,0,0,1,2.449-.978q21.19-.011,42.379,0a3.54,3.54,0,0,1,3.516,2.863,3.745,3.745,0,0,1,.065.723q0,21.151,0,42.285a3.567,3.567,0,0,1-3.229,3.612,4.609,4.609,0,0,1-.557.036h-42.062a3.607,3.607,0,0,1-3.6-2.886,4.329,4.329,0,0,1-.078-.893Q-1527.29,1135.79-1527.287,1125.284Zm26.353-2.933c0-.135-.013-.219-.013-.305v-2.653c0-.318,0-.329-.318-.329h-6.45c-.3,0-.318.011-.318.318v23.075c0,.259.086.306.318.3,2.226-.008,4.462,0,6.693,0,.413,0,.369.051.371-.382l.048-12.4a7.282,7.282,0,0,1,.434-2.418,3.474,3.474,0,0,1,2.368-2.339,5.449,5.449,0,0,1,2.155-.181,3.054,3.054,0,0,1,2.651,1.908,7.9,7.9,0,0,1,.541,3.18q.009,6.134,0,12.269c0,.442,0,.375.385.375h7.046v-3.817c-.014-3.689-.019-7.38-.06-11.07a16.3,16.3,0,0,0-.242-2.333,9.868,9.868,0,0,0-1.2-3.556,6.431,6.431,0,0,0-3.477-2.862,11.447,11.447,0,0,0-4.163-.587,8.251,8.251,0,0,0-3.908,1.045,6.768,6.768,0,0,0-2.013,1.654c-.284.323-.54.692-.849,1.109Zm-19.037,20.406h7.056c.318,0,.318,0,.318-.337v-23c0-.351,0-.351-.353-.351h-6.693c-.335,0-.335,0-.335.328v23.366Zm-.583-31.169a4.238,4.238,0,0,0,1.219,3.061,4.239,4.239,0,0,0,3.043,1.262,4.244,4.244,0,0,0,3.07-1.232,4.244,4.244,0,0,0,1.253-3.061,4.293,4.293,0,0,0-4.263-4.294,4.294,4.294,0,0,0-4.324,4.259Z" transform="translate(1527.291 -1100.542)"/></svg>