<?xml version="1.0" encoding="utf-8"?>
<!-- Generator: Adobe Illustrator 25.2.1, SVG Export Plug-In . SVG Version: 6.00 Build 0)  -->
<svg version="1.1" id="Layer_1" xmlns="http://www.w3.org/2000/svg" xmlns:xlink="http://www.w3.org/1999/xlink" x="0px" y="0px"
	 viewBox="0 0 212 56" style="enable-background:new 0 0 212 56;" xml:space="preserve">
<style type="text/css">
	.st0{fill:#F4F7F6;}
</style>
<path class="st0" d="M11.6,28.5c-1.4-0.3-2.8-0.8-4-1.3s-2.3-1.2-3.2-2s-1.6-1.8-2.1-2.8s-0.8-2.3-0.8-3.6c0-1.5,0.3-2.9,1-4.1
	s1.6-2.2,2.7-3.1c1.1-0.8,2.4-1.4,3.9-1.8c1.5-0.4,3.1-0.6,4.7-0.6s3.1,0.2,4.5,0.7s2.7,1.2,3.8,2.1s2.1,2,2.8,3.2
	c0.7,1.3,1.2,2.7,1.3,4.2h-6.4c-0.1-0.9-0.4-1.7-0.8-2.3c-0.4-0.6-0.9-1.1-1.5-1.5s-1.2-0.7-1.9-0.9c-0.7-0.2-1.4-0.3-2.1-0.3
	c-1.8,0-3.2,0.4-4.2,1.2c-1,0.8-1.5,1.7-1.5,2.8c0,1.2,0.5,2.2,1.4,2.8s2.2,1.2,3.8,1.5l3.1,0.7c1.6,0.4,3.1,0.8,4.5,1.3
	c1.3,0.5,2.5,1.2,3.5,2c0.9,0.8,1.7,1.8,2.2,2.8c0.5,1.1,0.8,2.3,0.8,3.8c0,1.7-0.3,3.2-1,4.4c-0.7,1.3-1.6,2.3-2.7,3.1
	c-1.1,0.9-2.4,1.5-4,1.9c-1.5,0.4-3.1,0.7-4.9,0.7s-3.6-0.3-5.1-0.8s-2.9-1.3-4-2.3c-1.2-1-2.1-2.2-2.8-3.6
	c-0.7-1.4-1.2-3.1-1.4-4.9h6.4c0.2,1.2,0.5,2.2,0.9,3s1,1.4,1.6,1.9s1.4,0.9,2.2,1.1c0.8,0.2,1.7,0.3,2.6,0.3s1.7-0.1,2.4-0.3
	c0.7-0.2,1.4-0.5,1.9-0.8c0.5-0.4,1-0.8,1.3-1.3s0.5-1.2,0.5-1.9c0-1.3-0.5-2.3-1.6-3.1c-1-0.7-2.5-1.3-4.3-1.7l-3.2-0.7L11.6,28.5z
	 M57.9,9.5v21.3c0,2-0.3,3.7-0.9,5.3s-1.5,2.9-2.7,4S51.7,42,50,42.6s-3.5,0.9-5.5,0.9s-3.9-0.3-5.5-0.9c-1.7-0.6-3.1-1.4-4.2-2.5
	s-2.1-2.4-2.7-4c-0.6-1.6-0.9-3.4-0.9-5.4V9.5h6.4v21c0,2.5,0.6,4.4,1.8,5.7s3,2,5.3,2s4-0.7,5.3-2c1.2-1.3,1.8-3.2,1.8-5.7v-21
	H57.9z M78.2,9.5c1.6,0,3,0.3,4.3,0.8s2.4,1.3,3.4,2.2s1.7,2,2.2,3.2s0.8,2.5,0.8,3.9s-0.3,2.7-0.8,3.9c-0.5,1.2-1.3,2.3-2.3,3.2
	c-1,0.9-2.2,1.6-3.5,2.2c-1.3,0.5-2.8,0.8-4.5,0.8h-7.9V43h-6.4V9.5H78.2z M81.3,23c1-0.9,1.5-2,1.5-3.4s-0.4-2.6-1.3-3.5
	s-2.2-1.3-4-1.3H70v9.5h7C78.8,24.3,80.3,23.9,81.3,23z M111.2,43l-10.4-14h-2.6v14h-6.4V9.5h12.9c1.6,0,3,0.2,4.3,0.7
	s2.4,1.2,3.4,2c0.9,0.9,1.7,1.9,2.2,3.1s0.8,2.4,0.8,3.8c0,1.1-0.2,2.2-0.5,3.1c-0.4,1-0.9,1.9-1.5,2.7c-0.7,0.8-1.4,1.5-2.3,2.2
	c-0.9,0.6-1.9,1.1-3.1,1.4L118.8,43H111.2z M98.2,23.7h5.3c1.8,0,3.3-0.4,4.3-1.2c1-0.8,1.5-1.8,1.5-3.2c0-1.4-0.4-2.6-1.3-3.3
	c-0.9-0.8-2.2-1.2-4.1-1.2h-5.7C98.2,14.8,98.2,23.7,98.2,23.7z M142.2,9.5V15H128v8.1h13.6v5.5H128V43h-6.4V9.5H142.2z M161.3,34.1
	h-11.9l-3.1,8.9h-6.6l12.6-33.5h6.5L171.4,43h-7L161.3,34.1z M159.3,28.6l-4-11.2l-4,11.2C151.3,28.6,159.3,28.6,159.3,28.6z
	 M179.9,17.6V43h-6V9.5h9.4l7.9,26.3l7.7-26.3h9.4V43h-6V17.6l-8,25.4h-6.4L179.9,17.6z"/>
</svg>
