<?xml version="1.0" encoding="utf-8"?>
<!-- Generator: Adobe Illustrator 25.2.1, SVG Export Plug-In . SVG Version: 6.00 Build 0)  -->
<svg version="1.1" id="Layer_1" xmlns="http://www.w3.org/2000/svg" xmlns:xlink="http://www.w3.org/1999/xlink" x="0px" y="0px"
	 viewBox="0 0 8 8" style="enable-background:new 0 0 8 8;" xml:space="preserve">
<style type="text/css">
	.st0{fill:none;}
</style>
<path transform="translate(-329.5 -478)" class="st0" d="M333.5,478L333.5,478c0.3,0,0.5,0.2,0.5,0.5v7c0,0.3-0.2,0.5-0.5,0.5l0,0
	c-0.3,0-0.5-0.2-0.5-0.5v-7C333,478.2,333.2,478,333.5,478z M337.5,482L337.5,482c0,0.3-0.2,0.5-0.5,0.5h-7c-0.3,0-0.5-0.2-0.5-0.5
	l0,0c0-0.3,0.2-0.5,0.5-0.5h7C337.3,481.5,337.5,481.7,337.5,482z"/>
</svg>
