<?xml version="1.0" encoding="utf-8"?>
<!-- Generator: Adobe Illustrator 25.2.1, SVG Export Plug-In . SVG Version: 6.00 Build 0)  -->
<svg version="1.1" id="Layer_1" xmlns="http://www.w3.org/2000/svg" xmlns:xlink="http://www.w3.org/1999/xlink" x="0px" y="0px"
	 viewBox="0 0 34 34" style="enable-background:new 0 0 34 34;" xml:space="preserve">
<style type="text/css">
	.st0{fill:#F4F7F6;}
</style>
<path class="st0" d="M34,34H0v-5c0-5,7.5-9,17-9c9.5,0,17,4,17,9V34z M2,32h30v-3c0-3.8-6.9-7-15-7S2,25.2,2,29V32z M17,18
	c-5,0-9-4-9-9s4-9,9-9c5,0,9,4,9,9S22,18,17,18z M17,2c-3.9,0-7,3.1-7,7s3.1,7,7,7c3.9,0,7-3.1,7-7S20.9,2,17,2z"/>
</svg>
