<svg xmlns="http://www.w3.org/2000/svg" width="344.35" height="67" viewBox="0 0 344.35 67"><defs><style>.a,.b{fill:#f4f7f6;}.a{font-size:54px;font-family:Capital-Semibold, Capital;font-weight:600;}</style></defs><g transform="translate(-203 -5385)"><text class="a" transform="translate(293.35 5437)"><tspan x="0" y="0">SUPRFAM</tspan></text><g transform="translate(203 5393.684)"><path class="b" d="M863.96,302.26a16.531,16.531,0,0,1-16.52,16.549H814.33V302.26h33.1V285.74h.667A16.534,16.534,0,0,1,863.96,302.26Z" transform="translate(-814.322 -269.176)"/><path class="b" d="M863.938,218.5v16.549H848.071c-.222-.01-.443-.015-.667-.015v.015h-.012v-.015H830.842v16.534a16.542,16.542,0,1,1,0-33.084l16.549.015Z" transform="translate(-814.3 -218.49)"/><path class="b" d="M949.368,285.695H948.7v-.015C948.924,285.68,949.146,285.685,949.368,285.695Z" transform="translate(-915.597 -269.131)"/><path class="b" d="M949.368,285.695H948.7v-.015C948.924,285.68,949.146,285.685,949.368,285.695Z" transform="translate(-915.597 -269.131)"/></g></g></svg>