<?xml version="1.0" encoding="utf-8"?>
<!-- Generator: Adobe Illustrator 25.2.1, SVG Export Plug-In . SVG Version: 6.00 Build 0)  -->
<svg version="1.1" id="Layer_1" xmlns="http://www.w3.org/2000/svg" xmlns:xlink="http://www.w3.org/1999/xlink" x="0px" y="0px"
	 viewBox="0 0 33.6 33.6" style="enable-background:new 0 0 33.6 33.6;" xml:space="preserve">
<style type="text/css">
	.st0{fill:#F4F7F6;}
</style>
<path class="st0" d="M33.6,22.4c0,6.2-5,11.2-11.2,11.2l0,0H0V22.4h22.4V11.2h0.5C28.8,11.4,33.6,16.4,33.6,22.4z M33.6,0v11.2H22.9
	c-0.2,0-0.3,0-0.5,0l0,0l0,0l0,0H11.2v11.2C5,22.5,0,17.5-0.1,11.3S4.8,0.1,11,0c0.1,0,0.1,0,0.2,0h11.2L33.6,0z M22.8,11.2h-0.5
	l0,0C22.5,11.2,22.7,11.2,22.8,11.2z M22.8,11.2h-0.5l0,0C22.5,11.2,22.7,11.2,22.8,11.2z"/>
</svg>
