<svg xmlns="http://www.w3.org/2000/svg" width="63.995" height="52" viewBox="0 0 63.995 52"><defs><style>.a{fill:#b9c3bf;}</style></defs><g transform="translate(0)"><path class="a" d="M58.443,14.443c.039.564.039,1.128.039,1.7,0,17.349-13.207,37.357-37.357,37.357v-.01A37.169,37.169,0,0,1,1,47.6a26.706,26.706,0,0,0,3.125.19,26.364,26.364,0,0,0,16.306-5.631A13.146,13.146,0,0,1,8.165,33.042a13.087,13.087,0,0,0,5.928-.226A13.131,13.131,0,0,1,3.561,19.946V19.78A13.046,13.046,0,0,0,9.52,21.423,13.146,13.146,0,0,1,5.456,3.893,37.264,37.264,0,0,0,32.515,17.609,13.142,13.142,0,0,1,54.889,5.634a26.346,26.346,0,0,0,8.338-3.187,13.178,13.178,0,0,1-5.772,7.261A26.111,26.111,0,0,0,65,7.641,26.673,26.673,0,0,1,58.443,14.443Z" transform="translate(-1 -1.497)"/></g></svg>